<svg width="88" height="100" viewBox="0 0 88 100" fill="none" xmlns="http://www.w3.org/2000/svg">
<g clip-path="url(#clip0)">
<path d="M78.125 6.25H9.375C4.19922 6.25 0 10.4492 0 15.625V84.375C0 89.5508 4.19922 93.75 9.375 93.75H78.125C83.3008 93.75 87.5 89.5508 87.5 84.375V15.625C87.5 10.4492 83.3008 6.25 78.125 6.25ZM46.875 62.5H37.5V71.875C37.5 73.5938 36.0938 75 34.375 75H28.125C26.4062 75 25 73.5938 25 71.875V28.125C25 26.4062 26.4062 25 28.125 25H46.875C57.207 25 65.625 33.418 65.625 43.75C65.625 54.082 57.207 62.5 46.875 62.5ZM46.875 37.5H37.5V50H46.875C50.3125 50 53.125 47.1875 53.125 43.75C53.125 40.3125 50.3125 37.5 46.875 37.5Z" fill="#005EA4"/>
</g>
<defs>
<clipPath id="clip0">
<rect width="87.5" height="100" fill="white"/>
</clipPath>
</defs>
</svg>
