<svg width="100" height="100" viewBox="0 0 100 100" fill="none" xmlns="http://www.w3.org/2000/svg">
<path d="M93.3875 78.5625L62.5 27.0938V6.25H65.625C67.3438 6.25 68.75 4.84375 68.75 3.125C68.75 1.40625 67.3438 0 65.625 0H34.375C32.6563 0 31.25 1.40625 31.25 3.125C31.25 4.84375 32.6563 6.25 34.375 6.25H37.5V27.0938L6.61254 78.5625C-0.462457 90.35 5.00004 100 18.75 100H81.25C95 100 100.463 90.3562 93.3875 78.5625ZM23.5375 62.5L43.75 28.8125V6.25H56.25V28.8125L76.4625 62.5H23.5375Z" fill="#005EA4"/>
</svg>
