<svg width="100" height="100" viewBox="0 0 100 100" fill="none" xmlns="http://www.w3.org/2000/svg">
<path d="M36.6667 46.6667C32.2464 46.6667 28.0072 44.9108 24.8816 41.7852C21.756 38.6596 20 34.4204 20 30.0001V16.6667C20 15.7827 20.3512 14.9348 20.9764 14.3097C21.6015 13.6846 22.4493 13.3334 23.3334 13.3334H26.6667C27.5508 13.3334 28.3986 12.9822 29.0237 12.3571C29.6488 11.732 30 10.8841 30 10.0001C30 9.11603 29.6488 8.26818 29.0237 7.64306C28.3986 7.01794 27.5508 6.66675 26.6667 6.66675H23.3334C20.6812 6.66675 18.1377 7.72032 16.2623 9.59568C14.3869 11.471 13.3334 14.0146 13.3334 16.6667V30.0001C13.3377 33.7659 14.2559 37.4743 16.0094 40.807C17.7628 44.1397 20.299 46.9969 23.4 49.1334C26.3795 51.7602 28.7957 54.9634 30.503 58.5498C32.2102 62.1362 33.1731 66.0313 33.3334 70.0001C33.3334 76.1885 35.7917 82.1234 40.1675 86.4992C44.5434 90.8751 50.4783 93.3334 56.6667 93.3334C62.8551 93.3334 68.79 90.8751 73.1659 86.4992C77.5417 82.1234 80 76.1885 80 70.0001V66.2001C83.1422 65.3888 85.8807 63.4593 87.702 60.7734C89.5234 58.0875 90.3027 54.8295 89.8938 51.6101C89.4849 48.3907 87.9158 45.431 85.4808 43.2857C83.0458 41.1404 79.9119 39.9568 76.6667 39.9568C73.4215 39.9568 70.2876 41.1404 67.8526 43.2857C65.4176 45.431 63.8486 48.3907 63.4396 51.6101C63.0307 54.8295 63.81 58.0875 65.6314 60.7734C67.4527 63.4593 70.1912 65.3888 73.3334 66.2001V70.0001C73.3334 74.4204 71.5774 78.6596 68.4518 81.7852C65.3262 84.9108 61.087 86.6667 56.6667 86.6667C52.2464 86.6667 48.0072 84.9108 44.8816 81.7852C41.756 78.6596 40 74.4204 40 70.0001C40.1688 66.0264 41.142 62.1283 42.8609 58.5416C44.5797 54.9549 47.0084 51.7543 50 49.1334C53.0888 46.9895 55.612 44.129 57.3536 40.7968C59.0951 37.4646 60.0032 33.76 60 30.0001V16.6667C60 14.0146 58.9465 11.471 57.0711 9.59568C55.1957 7.72032 52.6522 6.66675 50 6.66675H46.6667C45.7826 6.66675 44.9348 7.01794 44.3097 7.64306C43.6846 8.26818 43.3334 9.11603 43.3334 10.0001C43.3334 10.8841 43.6846 11.732 44.3097 12.3571C44.9348 12.9822 45.7826 13.3334 46.6667 13.3334H50C50.8841 13.3334 51.7319 13.6846 52.3571 14.3097C52.9822 14.9348 53.3334 15.7827 53.3334 16.6667V30.0001C53.3334 32.1888 52.9023 34.356 52.0647 36.3781C51.2271 38.4002 49.9995 40.2375 48.4518 41.7852C46.9042 43.3328 45.0669 44.5605 43.0448 45.3981C41.0227 46.2357 38.8554 46.6667 36.6667 46.6667ZM76.6667 60.0001C74.8986 60.0001 73.2029 59.2977 71.9527 58.0475C70.7024 56.7972 70 55.1015 70 53.3334C70 51.5653 70.7024 49.8696 71.9527 48.6194C73.2029 47.3691 74.8986 46.6667 76.6667 46.6667C78.4348 46.6667 80.1305 47.3691 81.3808 48.6194C82.631 49.8696 83.3334 51.5653 83.3334 53.3334C83.3334 55.1015 82.631 56.7972 81.3808 58.0475C80.1305 59.2977 78.4348 60.0001 76.6667 60.0001Z" fill="#005EA4"/>
</svg>
