<svg width="60" height="60" viewBox="0 0 60 60" fill="none" xmlns="http://www.w3.org/2000/svg">
<path d="M59.1075 12.3424C57.02 13.2674 54.7775 13.8924 52.42 14.1749C54.8525 12.7194 56.6724 10.4286 57.54 7.72995C55.2546 9.08742 52.7534 10.0429 50.145 10.5549C48.391 8.68211 46.0677 7.44076 43.5358 7.02363C41.004 6.6065 38.4053 7.03693 36.1431 8.24808C33.881 9.45923 32.082 11.3834 31.0254 13.7217C29.9689 16.0601 29.7139 18.6818 30.3 21.1799C25.6692 20.9474 21.1391 19.7438 17.0036 17.6472C12.8681 15.5506 9.21963 12.6079 6.29503 9.00995C5.29503 10.7349 4.72003 12.7349 4.72003 14.8649C4.71891 16.7824 5.19111 18.6706 6.09473 20.3618C6.99834 22.053 8.30543 23.495 9.90003 24.5599C8.05072 24.5011 6.24221 24.0014 4.62503 23.1024V23.2524C4.62484 25.9418 5.55511 28.5484 7.25799 30.6299C8.96086 32.7115 11.3315 34.1398 13.9675 34.6724C12.252 35.1367 10.4534 35.2051 8.70753 34.8724C9.45127 37.1865 10.9 39.21 12.8509 40.6598C14.8019 42.1095 17.1573 42.9129 19.5875 42.9574C15.4621 46.196 10.3672 47.9527 5.12253 47.9449C4.19348 47.9452 3.26522 47.8909 2.34253 47.7824C7.66622 51.2054 13.8634 53.022 20.1925 53.0149C41.6175 53.0149 53.33 35.2699 53.33 19.8799C53.33 19.3799 53.3175 18.8749 53.295 18.3749C55.5733 16.7274 57.5398 14.6872 59.1025 12.3499L59.1075 12.3424Z" fill="black"/>
</svg>
