<svg width="38" height="51" viewBox="0 0 38 51" fill="none" xmlns="http://www.w3.org/2000/svg">
<path d="M16.8889 0V6.375H21.1111V0H16.8889ZM10.3022 3.1025L7.30444 6.09875L11.8011 10.625L14.7778 7.6075L10.3022 3.1025ZM27.6978 3.1025L23.2222 7.6075L26.1989 10.625L30.6956 6.12L27.6978 3.1025ZM19 10.625C17.8802 10.625 16.8063 11.0728 16.0144 11.8698C15.2226 12.6668 14.7778 13.7478 14.7778 14.875V17H7.38889C5.99556 17 4.81333 17.8925 4.39111 19.125L0 31.875V48.875C0 49.4386 0.22242 49.9791 0.61833 50.3776C1.01424 50.7761 1.55121 51 2.11111 51H4.22222C4.78212 51 5.31909 50.7761 5.715 50.3776C6.11091 49.9791 6.33333 49.4386 6.33333 48.875V46.75H31.6667V48.875C31.6667 49.4386 31.8891 49.9791 32.285 50.3776C32.6809 50.7761 33.2179 51 33.7778 51H35.8889C36.4488 51 36.9858 50.7761 37.3817 50.3776C37.7776 49.9791 38 49.4386 38 48.875V31.875L33.6089 19.125C33.1867 17.8925 32.0044 17 30.6111 17H23.2222V14.875C23.2222 13.7478 22.7774 12.6668 21.9856 11.8698C21.1937 11.0728 20.1198 10.625 19 10.625ZM7.38889 20.1875H30.6111L33.7778 29.75H4.22222L7.38889 20.1875ZM7.38889 34C8.22874 34 9.0342 34.3358 9.62806 34.9336C10.2219 35.5314 10.5556 36.3421 10.5556 37.1875C10.5556 38.0329 10.2219 38.8436 9.62806 39.4414C9.0342 40.0392 8.22874 40.375 7.38889 40.375C6.54904 40.375 5.74358 40.0392 5.14972 39.4414C4.55585 38.8436 4.22222 38.0329 4.22222 37.1875C4.22222 36.3421 4.55585 35.5314 5.14972 34.9336C5.74358 34.3358 6.54904 34 7.38889 34ZM30.6111 34C31.451 34 32.2564 34.3358 32.8503 34.9336C33.4441 35.5314 33.7778 36.3421 33.7778 37.1875C33.7778 38.0329 33.4441 38.8436 32.8503 39.4414C32.2564 40.0392 31.451 40.375 30.6111 40.375C29.7713 40.375 28.9658 40.0392 28.3719 39.4414C27.7781 38.8436 27.4444 38.0329 27.4444 37.1875C27.4444 36.3421 27.7781 35.5314 28.3719 34.9336C28.9658 34.3358 29.7713 34 30.6111 34Z" fill="white"/>
</svg>
