<svg width="124" height="120" viewBox="0 0 124 120" fill="none" xmlns="http://www.w3.org/2000/svg">
<path d="M85.25 82.3742L94.3175 36.3871C100.44 33.0581 104.625 26.7097 104.625 19.3548C104.625 14.2216 102.584 9.29864 98.9502 5.6689C95.3167 2.03916 90.3886 0 85.25 0C80.1114 0 75.1833 2.03916 71.5498 5.6689C67.9163 9.29864 65.875 14.2216 65.875 19.3548C65.875 26.7097 70.06 33.0581 76.1825 36.3871L85.25 82.3742ZM85.25 7.74194C91.6825 7.74194 96.875 12.929 96.875 19.3548C96.875 25.7806 91.6825 30.9677 85.25 30.9677C78.8175 30.9677 73.625 25.7806 73.625 19.3548C73.625 12.929 78.8175 7.74194 85.25 7.74194ZM98.58 44.9032L124 34.6064V104.284L86.18 120L38.75 104.284L0 119.768V50.0903L38.75 34.6064L71.8425 45.5226L85.25 102.039L98.58 44.9032Z" fill="#005EA4"/>
</svg>
