<svg width="100" height="100" viewBox="0 0 100 100" fill="none" xmlns="http://www.w3.org/2000/svg">
<path d="M84.5417 34.875L80.3751 27.6667C79.8174 26.7107 78.9057 26.0129 77.8373 25.7244C76.7689 25.4359 75.6298 25.5798 74.6667 26.125L58.3334 35.5833V16.6667C58.3334 14.375 56.4584 12.5 54.1667 12.5H45.8334C43.5417 12.5 41.6667 14.375 41.6667 16.6667V35.5833L25.2917 26.125C24.8214 25.8504 24.3015 25.6714 23.7619 25.5982C23.2222 25.525 22.6734 25.559 22.147 25.6984C21.6205 25.8378 21.1267 26.0797 20.6939 26.4103C20.2612 26.7409 19.8979 27.1537 19.6251 27.625L15.4584 34.8333C14.2917 36.8333 14.9584 39.4167 16.9584 40.5417L33.3334 50L16.9584 59.4583C14.9584 60.625 14.2917 63.1667 15.4167 65.1667L19.5834 72.375C20.7501 74.375 23.2917 75.0417 25.2917 73.9167L41.6667 64.4167V83.3333C41.6667 85.625 43.5417 87.5 45.8334 87.5H54.1667C56.4584 87.5 58.3334 85.625 58.3334 83.3333V64.4167L74.7084 73.875C76.7084 75.0417 79.2501 74.3333 80.4167 72.3333L84.5834 65.125C85.7501 63.125 85.0417 60.5833 83.0417 59.4167L66.6667 50L83.0417 40.5417C85.0417 39.4167 85.7084 36.8333 84.5417 34.875Z" fill="#005EA4"/>
</svg>
