<svg width="100" height="100" viewBox="0 0 100 100" fill="none" xmlns="http://www.w3.org/2000/svg">
<path d="M80 33.3333H66.6667V20H13.3334V46.6667C13.3686 52.5071 15.3203 58.1745 18.8886 62.7983C22.457 67.422 27.4447 70.7464 33.0855 72.2607C38.7264 73.775 44.7084 73.3956 50.1127 71.1806C55.5169 68.9656 60.0446 65.0376 63 60H80C83.5363 60 86.9276 58.5952 89.4281 56.0948C91.9286 53.5943 93.3334 50.2029 93.3334 46.6667C93.3334 43.1304 91.9286 39.7391 89.4281 37.2386C86.9276 34.7381 83.5363 33.3333 80 33.3333ZM80 53.3333H65.7334C66.3248 51.1595 66.6385 48.9194 66.6667 46.6667V40H80C81.7682 40 83.4638 40.7024 84.7141 41.9526C85.9643 43.2029 86.6667 44.8986 86.6667 46.6667C86.6667 48.4348 85.9643 50.1305 84.7141 51.3807C83.4638 52.631 81.7682 53.3333 80 53.3333ZM66.6667 83.3333C66.6667 84.2174 66.3155 85.0652 65.6904 85.6904C65.0653 86.3155 64.2174 86.6667 63.3334 86.6667H16.6667C15.7827 86.6667 14.9348 86.3155 14.3097 85.6904C13.6846 85.0652 13.3334 84.2174 13.3334 83.3333C13.3334 82.4493 13.6846 81.6014 14.3097 80.9763C14.9348 80.3512 15.7827 80 16.6667 80H63.3334C64.2174 80 65.0653 80.3512 65.6904 80.9763C66.3155 81.6014 66.6667 82.4493 66.6667 83.3333Z" fill="#005EA4"/>
</svg>
