<svg width="100" height="100" viewBox="0 0 100 100" fill="none" xmlns="http://www.w3.org/2000/svg">
<path d="M82.5833 58.3333C83.468 59.6071 84.7367 60.5648 86.2042 61.0667C87.6717 61.5685 89.2612 61.5883 90.7407 61.123C92.2202 60.6578 93.5123 59.7319 94.4284 58.4804C95.3445 57.229 95.8368 55.7176 95.8333 54.1667C95.8368 52.6157 95.3445 51.1043 94.4284 49.8529C93.5123 48.6015 92.2202 47.6756 90.7407 47.2103C89.2612 46.7451 87.6717 46.7648 86.2042 47.2667C84.7367 47.7685 83.468 48.7262 82.5833 50H79.1666C79.1666 43.4583 77.0833 37.5 73.3333 32.5417L78.9166 26.9583C81.2499 27.375 83.6249 26.7083 85.4166 25C88.2083 22.125 88.2083 17.5 85.4166 14.5833C82.5416 11.7917 77.9166 11.7917 74.9999 14.5833C73.2916 16.375 72.6249 18.75 73.0416 21.0833L67.4583 26.6667C63.6249 23.7917 59.1249 21.875 54.1666 21.1667V15.3333C55.4404 14.4486 56.3981 13.1799 56.8999 11.7124C57.4018 10.2449 57.4215 8.65543 56.9563 7.17594C56.491 5.69645 55.5651 4.40435 54.3137 3.48821C53.0623 2.57207 51.5509 2.07984 49.9999 2.08333C48.449 2.07984 46.9376 2.57207 45.6862 3.48821C44.4347 4.40435 43.5089 5.69645 43.0436 7.17594C42.5784 8.65543 42.5981 10.2449 43.0999 11.7124C43.6018 13.1799 44.5595 14.4486 45.8333 15.3333V21.1667C42.0833 21.7083 38.5833 22.9167 35.4166 24.75L30.7916 18.125C31.5833 15.9583 31.3749 13.4583 29.9583 11.4583C29.4091 10.6723 28.7102 10.0023 27.9017 9.4867C27.0932 8.97111 26.1909 8.62005 25.2466 8.45363C24.3022 8.28721 23.3343 8.30868 22.3983 8.51683C21.4622 8.72498 20.5764 9.11572 19.7916 9.66666C16.4999 11.9583 15.6666 16.5 17.9999 19.7917C19.4166 21.8333 21.6666 22.9167 23.9583 22.9167L28.8749 29.9167C27.0833 31.7083 25.6666 33.7083 24.4583 35.9167C23.1448 35.4035 21.7112 35.2799 20.3292 35.5607C18.9473 35.8415 17.6756 36.5149 16.6666 37.5C13.8749 40.4167 13.8749 45 16.6666 47.9167C17.8749 49.0417 19.3333 49.7083 20.8333 50C20.8333 52.25 21.1249 54.4167 21.5833 56.5L16.1249 57.9583C14.3749 56.5 11.9583 55.875 9.54161 56.5C7.67404 57.0083 6.0849 58.2377 5.12377 59.9177C4.16265 61.5978 3.90827 63.5908 4.41661 65.4583C4.92494 67.3259 6.15434 68.915 7.83435 69.8762C9.51436 70.8373 11.5074 71.0917 13.3749 70.5833C15.7499 69.9167 17.5416 68.1667 18.2916 66L24.5833 64.2917C26.4583 67.5833 28.9583 70.5 31.8749 72.9167L27.2916 81.25C24.9999 81.5833 22.9166 82.875 21.7083 85.0833C21.2541 85.926 20.9704 86.8498 20.8733 87.8021C20.7761 88.7544 20.8676 89.7165 21.1423 90.6335C21.417 91.5505 21.8696 92.4044 22.4743 93.1464C23.079 93.8885 23.824 94.5042 24.6666 94.9583C25.5093 95.4125 26.4331 95.6962 27.3854 95.7933C28.3377 95.8904 29.2998 95.799 30.2168 95.5243C31.1338 95.2496 31.9877 94.797 32.7297 94.1923C33.4718 93.5876 34.0875 92.8426 34.5416 92C35.7083 89.8333 35.6666 87.3333 34.6249 85.2917L39.0833 77.0833C42.4583 78.4167 46.1249 79.1667 49.9999 79.1667H50.7499C50.2083 80.25 49.9999 81.5 49.9999 82.8333C50.3333 86.875 53.8333 89.875 57.8333 89.5833C61.8333 89.2917 64.8749 85.75 64.5833 81.75C64.4166 79.6667 63.3749 77.8333 61.8749 76.625C63.8333 75.75 65.7083 74.625 67.4583 73.3333L77.2083 83.0833C76.7916 85.4167 77.4583 87.7917 79.1666 89.5833C82.0833 92.375 86.6666 92.375 89.5833 89.5833C92.4999 86.7917 92.3749 82.0833 89.5833 79.1667C87.7916 77.4583 85.4166 76.7917 83.0833 77.2083L73.3333 67.4583C75.3749 64.75 76.9583 61.6667 77.9583 58.3333H82.5833ZM43.7499 50C40.2916 50 37.4999 47.2083 37.4999 43.75C37.4999 40.2917 40.2916 37.5 43.7499 37.5C47.2083 37.5 49.9999 40.2917 49.9999 43.75C49.9999 47.2083 47.2083 50 43.7499 50ZM58.3333 62.5C56.0416 62.5 54.1666 60.625 54.1666 58.3333C54.1666 56.0417 56.0416 54.1667 58.3333 54.1667C60.6249 54.1667 62.4999 56.0417 62.4999 58.3333C62.4999 60.625 60.6249 62.5 58.3333 62.5Z" fill="#E31A1C"/>
</svg>
